# Blender v2.80 (sub 41) OBJ File: 'arc_8.blend'
# www.blender.org
v 0.765367 -0.500000 1.847759
v 1.148050 -0.500000 2.771639
v 0.765367 0.500000 1.847759
v 1.148050 0.500000 2.771639
v 0.390181 -0.500000 1.961571
v 0.585271 -0.500000 2.942356
v 0.390181 0.500000 1.961571
v 0.585271 0.500000 2.942356
v 0.000000 -0.500000 2.000000
v 0.000000 -0.500000 3.000000
v -0.000000 0.500000 2.000000
v 0.000000 0.500000 3.000000
v -0.390181 -0.500000 1.961571
v -0.585271 -0.500000 2.942356
v -0.390181 0.500000 1.961571
v -0.585271 0.500000 2.942356
v -0.765367 -0.500000 1.847759
v -1.148050 -0.500000 2.771638
v -0.765367 0.500000 1.847759
v -1.148050 0.500000 2.771638
v 0.765367 0.500000 1.847759
v 0.765367 0.500000 1.847759
v 0.765367 -0.500000 1.847759
v 0.765367 -0.500000 1.847759
v 1.148050 -0.500000 2.771639
v 1.148050 -0.500000 2.771639
v 1.148050 0.500000 2.771639
v 1.148050 0.500000 2.771639
v 0.585271 0.500000 2.942356
v 0.585271 -0.500000 2.942356
v 0.390181 -0.500000 1.961571
v 0.390181 0.500000 1.961571
v 0.000000 0.500000 3.000000
v 0.000000 -0.500000 3.000000
v 0.000000 -0.500000 2.000000
v -0.000000 0.500000 2.000000
v -0.390181 0.500000 1.961571
v -0.585271 0.500000 2.942356
v -0.585271 -0.500000 2.942356
v -0.390181 -0.500000 1.961571
v -0.765367 0.500000 1.847759
v -0.765367 0.500000 1.847759
v -0.765367 -0.500000 1.847759
v -0.765367 -0.500000 1.847759
v -1.148050 -0.500000 2.771638
v -1.148050 -0.500000 2.771638
v -1.148050 0.500000 2.771638
v -1.148050 0.500000 2.771638
vn 0.9239 0.0000 -0.3827
vn 0.1951 0.0000 0.9808
vn 0.0000 0.0000 1.0000
vn 0.2903 0.0000 0.9569
vn -0.2903 0.0000 -0.9569
vn -0.1951 0.0000 -0.9808
vn 0.0000 1.0000 0.0000
vn 0.0000 -1.0000 0.0000
vn 0.0000 0.0000 -1.0000
vn -0.1951 0.0000 0.9808
vn -0.2903 0.0000 0.9569
vn 0.1951 0.0000 -0.9808
vn -0.9239 0.0000 -0.3827
vn 0.2903 0.0000 -0.9569
s 1
f 23//1 21//1 27//1 25//1
f 6//2 29//2 33//3 10//3
f 26//4 28//4 29//2 6//2
f 22//5 24//5 31//6 32//6
f 4//7 3//7 7//7 8//7
f 1//8 2//8 30//8 5//8
f 12//7 11//7 15//7 16//7
f 32//6 31//6 35//9 36//9
f 8//7 7//7 11//7 12//7
f 5//8 30//8 34//8 9//8
f 14//10 38//10 47//11 46//11
f 9//8 34//8 39//8 13//8
f 10//3 33//3 38//10 14//10
f 36//9 35//9 40//12 37//12
f 43//13 45//13 48//13 41//13
f 37//12 40//12 44//14 42//14
f 16//7 15//7 19//7 20//7
f 13//8 39//8 18//8 17//8
