# Blender v2.80 (sub 41) OBJ File: ''
# www.blender.org
v 1.000000 -0.500000 1.732051
v 1.500000 -0.500000 2.598076
v 1.000000 0.500000 1.732051
v 1.500000 0.500000 2.598076
v 0.765367 -0.500000 1.847759
v 1.148050 -0.500000 2.771639
v 0.765367 0.500000 1.847759
v 1.148050 0.500000 2.771639
v 0.517638 -0.500000 1.931852
v 0.776457 -0.500000 2.897778
v 0.517638 0.500000 1.931852
v 0.776457 0.500000 2.897778
v 0.261052 -0.500000 1.982890
v 0.391578 -0.500000 2.974335
v 0.261052 0.500000 1.982890
v 0.391578 0.500000 2.974335
v -0.000000 -0.500000 2.000000
v -0.000000 -0.500000 3.000000
v -0.000000 0.500000 2.000000
v -0.000000 0.500000 3.000000
v -0.261053 -0.500000 1.982890
v -0.391579 -0.500000 2.974335
v -0.261053 0.500000 1.982890
v -0.391579 0.500000 2.974335
v -0.517638 -0.500000 1.931852
v -0.776458 -0.500000 2.897778
v -0.517638 0.500000 1.931852
v -0.776458 0.500000 2.897778
v -0.765367 -0.500000 1.847759
v -1.148051 -0.500000 2.771639
v -0.765367 0.500000 1.847759
v -1.148051 0.500000 2.771639
v -1.000000 -0.500000 1.732051
v -1.500001 -0.500000 2.598076
v -1.000000 0.500000 1.732051
v -1.500001 0.500000 2.598076
v 1.000000 0.500000 1.732051
v 1.000000 0.500000 1.732051
v 1.000000 -0.500000 1.732051
v 1.000000 -0.500000 1.732051
v 1.500000 -0.500000 2.598076
v 1.500000 -0.500000 2.598076
v 1.500000 0.500000 2.598076
v 1.500000 0.500000 2.598076
v 1.148050 0.500000 2.771639
v 1.148050 -0.500000 2.771639
v 0.765367 -0.500000 1.847759
v 0.765367 0.500000 1.847759
v 0.517638 0.500000 1.931852
v 0.776457 0.500000 2.897778
v 0.776457 -0.500000 2.897778
v 0.517638 -0.500000 1.931852
v 0.391578 -0.500000 2.974335
v 0.261052 -0.500000 1.982890
v 0.391578 0.500000 2.974335
v 0.261052 0.500000 1.982890
v -0.000000 0.500000 3.000000
v -0.000000 -0.500000 3.000000
v -0.000000 -0.500000 2.000000
v -0.000000 0.500000 2.000000
v -0.261053 0.500000 1.982890
v -0.391579 0.500000 2.974335
v -0.391579 -0.500000 2.974335
v -0.261053 -0.500000 1.982890
v -0.776458 0.500000 2.897778
v -0.776458 -0.500000 2.897778
v -0.517638 -0.500000 1.931852
v -0.517638 0.500000 1.931852
v -1.148051 0.500000 2.771639
v -1.148051 -0.500000 2.771639
v -0.765367 -0.500000 1.847759
v -0.765367 0.500000 1.847759
v -1.000000 0.500000 1.732051
v -1.000000 0.500000 1.732051
v -1.000000 -0.500000 1.732051
v -1.000000 -0.500000 1.732051
v -1.500001 -0.500000 2.598076
v -1.500001 -0.500000 2.598076
v -1.500001 0.500000 2.598076
v -1.500001 0.500000 2.598076
vn 0.8660 0.0000 -0.5000
vn 0.0000 1.0000 0.0000
vn 0.4423 0.0000 0.8968
vn 0.3827 0.0000 0.9239
vn -0.4423 0.0000 -0.8968
vn -0.3827 0.0000 -0.9239
vn 0.0000 -1.0000 0.0000
vn 0.2588 0.0000 0.9659
vn -0.2588 0.0000 -0.9659
vn 0.1305 0.0000 0.9914
vn 0.0000 0.0000 1.0000
vn -0.1305 0.0000 -0.9914
vn 0.0000 0.0000 -1.0000
vn -0.1305 0.0000 0.9914
vn -0.2588 0.0000 0.9659
vn 0.1305 0.0000 -0.9914
vn -0.3827 0.0000 0.9239
vn 0.2588 0.0000 -0.9659
vn 0.3827 0.0000 -0.9239
vn -0.8660 0.0000 -0.5000
vn -0.4423 0.0000 0.8968
vn 0.4423 0.0000 -0.8968
s 1
f 39//1 37//1 43//1 41//1
f 8//2 7//2 11//2 12//2
f 42//3 44//3 45//4 6//4
f 38//5 40//5 47//6 48//6
f 4//2 3//2 7//2 8//2
f 1//7 2//7 46//7 5//7
f 9//7 51//7 53//7 13//7
f 5//7 46//7 51//7 9//7
f 6//4 45//4 50//8 10//8
f 48//6 47//6 52//9 49//9
f 14//10 55//10 57//11 18//11
f 10//8 50//8 55//10 14//10
f 49//9 52//9 54//12 56//12
f 12//2 11//2 15//2 16//2
f 20//2 19//2 23//2 24//2
f 56//12 54//12 59//13 60//13
f 16//2 15//2 19//2 20//2
f 13//7 53//7 58//7 17//7
f 22//14 62//14 65//15 26//15
f 17//7 58//7 63//7 21//7
f 18//11 57//11 62//14 22//14
f 60//13 59//13 64//16 61//16
f 26//15 65//15 69//17 30//17
f 61//16 64//16 67//18 68//18
f 24//2 23//2 27//2 28//2
f 21//7 63//7 66//7 25//7
f 32//2 31//2 74//2 80//2
f 68//18 67//18 71//19 72//19
f 28//2 27//2 31//2 32//2
f 25//7 66//7 70//7 29//7
f 75//20 77//20 79//20 73//20
f 29//7 70//7 78//7 76//7
f 30//17 69//17 36//21 34//21
f 72//19 71//19 33//22 35//22
