# Blender v2.80 (sub 41) OBJ File: ''
# www.blender.org
v 1.414214 -0.500000 1.414214
v 2.121320 -0.500000 2.121320
v 1.414214 0.500000 1.414214
v 2.121320 0.500000 2.121320
v 1.258641 -0.500000 1.554292
v 1.887961 -0.500000 2.331438
v 1.258641 0.500000 1.554292
v 1.887961 0.500000 2.331438
v 1.089278 -0.500000 1.677341
v 1.633917 -0.500000 2.516012
v 1.089278 0.500000 1.677341
v 1.633917 0.500000 2.516012
v 0.907981 -0.500000 1.782013
v 1.361972 -0.500000 2.673020
v 0.907981 0.500000 1.782013
v 1.361972 0.500000 2.673020
v 0.716736 -0.500000 1.867161
v 1.075104 -0.500000 2.800741
v 0.716736 0.500000 1.867161
v 1.075104 0.500000 2.800741
v 0.517638 -0.500000 1.931852
v 0.776457 -0.500000 2.897778
v 0.517638 0.500000 1.931852
v 0.776457 0.500000 2.897778
v 0.312869 -0.500000 1.975377
v 0.469303 -0.500000 2.963065
v 0.312869 0.500000 1.975377
v 0.469303 0.500000 2.963065
v 0.104672 -0.500000 1.997259
v 0.157008 -0.500000 2.995889
v 0.104672 0.500000 1.997259
v 0.157008 0.500000 2.995889
v -0.104672 -0.500000 1.997259
v -0.157008 -0.500000 2.995889
v -0.104672 0.500000 1.997259
v -0.157008 0.500000 2.995889
v -0.312869 -0.500000 1.975377
v -0.469304 -0.500000 2.963065
v -0.312869 0.500000 1.975377
v -0.469304 0.500000 2.963065
v -0.517638 -0.500000 1.931852
v -0.776457 -0.500000 2.897778
v -0.517638 0.500000 1.931852
v -0.776457 0.500000 2.897778
v -0.716736 -0.500000 1.867161
v -1.075104 -0.500000 2.800742
v -0.716736 0.500000 1.867161
v -1.075104 0.500000 2.800742
v -0.907981 -0.500000 1.782013
v -1.361971 -0.500000 2.673020
v -0.907981 0.500000 1.782013
v -1.361971 0.500000 2.673020
v -1.089278 -0.500000 1.677341
v -1.633917 -0.500000 2.516012
v -1.089278 0.500000 1.677341
v -1.633917 0.500000 2.516012
v -1.258641 -0.500000 1.554292
v -1.887961 -0.500000 2.331438
v -1.258641 0.500000 1.554292
v -1.887961 0.500000 2.331438
v -1.414214 -0.500000 1.414214
v -2.121320 -0.500000 2.121320
v -1.414214 0.500000 1.414214
v -2.121320 0.500000 2.121320
v 1.414214 0.500000 1.414214
v 1.414214 0.500000 1.414214
v 1.414214 -0.500000 1.414214
v 1.414214 -0.500000 1.414214
v 2.121320 -0.500000 2.121320
v 2.121320 -0.500000 2.121320
v 2.121320 0.500000 2.121320
v 2.121320 0.500000 2.121320
v 1.887961 0.500000 2.331438
v 1.887961 -0.500000 2.331438
v 1.258641 -0.500000 1.554292
v 1.258641 0.500000 1.554292
v 1.633917 0.500000 2.516012
v 1.633917 -0.500000 2.516012
v 1.089278 -0.500000 1.677341
v 1.089278 0.500000 1.677341
v 0.907981 0.500000 1.782013
v 1.361972 0.500000 2.673020
v 1.361972 -0.500000 2.673020
v 0.907981 -0.500000 1.782013
v 1.075104 -0.500000 2.800741
v 0.716736 -0.500000 1.867161
v 1.075104 0.500000 2.800741
v 0.716736 0.500000 1.867161
v 0.776457 0.500000 2.897778
v 0.776457 -0.500000 2.897778
v 0.517638 -0.500000 1.931852
v 0.517638 0.500000 1.931852
v 0.312869 0.500000 1.975377
v 0.469303 0.500000 2.963065
v 0.469303 -0.500000 2.963065
v 0.312869 -0.500000 1.975377
v 0.157008 0.500000 2.995889
v 0.157008 -0.500000 2.995889
v 0.104672 -0.500000 1.997259
v 0.104672 0.500000 1.997259
v -0.157008 0.500000 2.995889
v -0.157008 -0.500000 2.995889
v -0.104672 -0.500000 1.997259
v -0.104672 0.500000 1.997259
v -0.312869 0.500000 1.975377
v -0.469304 0.500000 2.963065
v -0.469304 -0.500000 2.963065
v -0.312869 -0.500000 1.975377
v -0.776457 0.500000 2.897778
v -0.776457 -0.500000 2.897778
v -0.517638 -0.500000 1.931852
v -0.517638 0.500000 1.931852
v -0.716736 -0.500000 1.867161
v -0.716736 0.500000 1.867161
v -1.075104 0.500000 2.800742
v -1.075104 -0.500000 2.800742
v -0.907981 0.500000 1.782013
v -1.361971 0.500000 2.673020
v -1.361971 -0.500000 2.673020
v -0.907981 -0.500000 1.782013
v -1.633917 0.500000 2.516012
v -1.633917 -0.500000 2.516012
v -1.089278 -0.500000 1.677341
v -1.089278 0.500000 1.677341
v -1.258641 0.500000 1.554292
v -1.887961 0.500000 2.331438
v -1.887961 -0.500000 2.331438
v -1.258641 -0.500000 1.554292
v -1.414214 0.500000 1.414214
v -1.414214 0.500000 1.414214
v -1.414214 -0.500000 1.414214
v -1.414214 -0.500000 1.414214
v -2.121320 -0.500000 2.121320
v -2.121320 -0.500000 2.121320
v -2.121320 0.500000 2.121320
v -2.121320 0.500000 2.121320
vn 0.7071 0.0000 -0.7071
vn 0.6293 0.0000 0.7771
vn 0.5446 0.0000 0.8386
vn 0.6691 0.0000 0.7431
vn -0.6691 0.0000 -0.7431
vn -0.6293 0.0000 -0.7771
vn 0.0000 1.0000 0.0000
vn 0.0000 -1.0000 0.0000
vn -0.5446 0.0000 -0.8386
vn 0.4540 0.0000 0.8910
vn -0.4540 0.0000 -0.8910
vn 0.3583 0.0000 0.9336
vn 0.2588 0.0000 0.9659
vn -0.3583 0.0000 -0.9336
vn -0.2588 0.0000 -0.9659
vn 0.1564 0.0000 0.9877
vn 0.0523 0.0000 0.9986
vn -0.1564 0.0000 -0.9877
vn -0.0523 0.0000 0.9986
vn -0.0523 0.0000 -0.9986
vn 0.0523 0.0000 -0.9986
vn -0.1564 0.0000 0.9877
vn -0.2588 0.0000 0.9659
vn 0.1564 0.0000 -0.9877
vn 0.2588 0.0000 -0.9659
vn 0.3583 0.0000 -0.9336
vn -0.3583 0.0000 0.9336
vn -0.4540 0.0000 0.8910
vn -0.5446 0.0000 0.8386
vn 0.4540 0.0000 -0.8910
vn 0.5446 0.0000 -0.8386
vn -0.6293 0.0000 0.7771
vn 0.6293 0.0000 -0.7771
vn -0.7071 0.0000 -0.7071
vn -0.6691 0.0000 0.7431
vn 0.6691 0.0000 -0.7431
s 1
f 67//1 65//1 71//1 69//1
f 6//2 73//2 77//3 10//3
f 70//4 72//4 73//2 6//2
f 66//5 68//5 75//6 76//6
f 4//7 3//7 7//7 8//7
f 1//8 2//8 74//8 5//8
f 12//7 11//7 15//7 16//7
f 76//6 75//6 79//9 80//9
f 8//7 7//7 11//7 12//7
f 5//8 74//8 78//8 9//8
f 13//8 83//8 85//8 17//8
f 9//8 78//8 83//8 13//8
f 10//3 77//3 82//10 14//10
f 80//9 79//9 84//11 81//11
f 18//12 87//12 89//13 22//13
f 14//10 82//10 87//12 18//12
f 81//11 84//11 86//14 88//14
f 16//7 15//7 19//7 20//7
f 24//7 23//7 27//7 28//7
f 88//14 86//14 91//15 92//15
f 20//7 19//7 23//7 24//7
f 17//8 85//8 90//8 21//8
f 26//16 94//16 97//17 30//17
f 21//8 90//8 95//8 25//8
f 22//13 89//13 94//16 26//16
f 92//15 91//15 96//18 93//18
f 30//17 97//17 101//19 34//19
f 93//18 96//18 99//20 100//20
f 28//7 27//7 31//7 32//7
f 25//8 95//8 98//8 29//8
f 36//7 35//7 39//7 40//7
f 100//20 99//20 103//21 104//21
f 32//7 31//7 35//7 36//7
f 29//8 98//8 102//8 33//8
f 38//22 106//22 109//23 42//23
f 33//8 102//8 107//8 37//8
f 34//19 101//19 106//22 38//22
f 104//21 103//21 108//24 105//24
f 112//25 111//25 113//26 114//26
f 105//24 108//24 111//25 112//25
f 40//7 39//7 43//7 44//7
f 37//8 107//8 110//8 41//8
f 48//7 47//7 51//7 52//7
f 44//7 43//7 47//7 48//7
f 41//8 110//8 116//8 45//8
f 42//23 109//23 115//27 46//27
f 50//28 118//28 121//29 54//29
f 45//8 116//8 119//8 49//8
f 46//27 115//27 118//28 50//28
f 114//26 113//26 120//30 117//30
f 56//7 55//7 59//7 60//7
f 117//30 120//30 123//31 124//31
f 52//7 51//7 55//7 56//7
f 49//8 119//8 122//8 53//8
f 57//8 127//8 133//8 132//8
f 53//8 122//8 127//8 57//8
f 54//29 121//29 126//32 58//32
f 124//31 123//31 128//33 125//33
f 131//34 134//34 135//34 129//34
f 58//32 126//32 136//35 62//35
f 125//33 128//33 61//36 130//36
f 60//7 59//7 63//7 64//7
