# Blender v2.80 (sub 41) OBJ File: 'flower_smooth_8.blend'
# www.blender.org
v 0.765367 -0.500000 1.847759
v 1.148050 -0.500000 2.771639
v 0.765367 0.500000 1.847759
v 1.148050 0.500000 2.771639
v 0.601412 -0.500000 1.907434
v 0.902117 -0.500000 2.863765
v 0.601412 0.500000 1.907434
v 0.902117 0.500000 2.863765
v 0.432879 -0.500000 1.952592
v 0.649319 -0.500000 3.029454
v 0.432879 0.500000 1.952592
v 0.649319 0.500000 3.029454
v 0.261052 -0.500000 1.982890
v 0.391579 -0.500000 3.225349
v 0.261052 0.500000 1.982890
v 0.391579 0.500000 3.225349
v 0.087239 -0.500000 1.998097
v 0.130858 -0.500000 3.326274
v 0.087239 0.500000 1.998097
v 0.130858 0.500000 3.326274
v -0.087239 -0.500000 1.998097
v -0.130858 -0.500000 3.326274
v -0.087239 0.500000 1.998097
v -0.130858 0.500000 3.326274
v -0.261052 -0.500000 1.982890
v -0.391578 -0.500000 3.225349
v -0.261052 0.500000 1.982890
v -0.391579 0.500000 3.225349
v -0.432879 -0.500000 1.952593
v -0.649319 -0.500000 3.029455
v -0.432879 0.500000 1.952593
v -0.649319 0.500000 3.029455
v -0.601412 -0.500000 1.907435
v -0.902117 -0.500000 2.863766
v -0.601412 0.500000 1.907435
v -0.902117 0.500000 2.863766
v -0.765367 -0.500000 1.847760
v -1.148050 -0.500000 2.771640
v -0.765367 0.500000 1.847760
v -1.148050 0.500000 2.771640
v 0.765367 0.500000 1.847759
v 0.765367 0.500000 1.847759
v 0.765367 -0.500000 1.847759
v 0.765367 -0.500000 1.847759
v 1.148050 -0.500000 2.771639
v 1.148050 -0.500000 2.771639
v 1.148050 0.500000 2.771639
v 1.148050 0.500000 2.771639
v 0.902117 0.500000 2.863765
v 0.902117 -0.500000 2.863765
v 0.601412 -0.500000 1.907434
v 0.601412 0.500000 1.907434
v 0.432879 -0.500000 1.952592
v 0.432879 0.500000 1.952592
v 0.649319 0.500000 3.029454
v 0.649319 -0.500000 3.029454
v 0.261052 0.500000 1.982890
v 0.391579 0.500000 3.225349
v 0.391579 -0.500000 3.225349
v 0.261052 -0.500000 1.982890
v 0.130858 0.500000 3.326274
v 0.130858 -0.500000 3.326274
v 0.087239 -0.500000 1.998097
v 0.087239 0.500000 1.998097
v -0.087239 0.500000 1.998097
v -0.130858 0.500000 3.326274
v -0.130858 -0.500000 3.326274
v -0.087239 -0.500000 1.998097
v -0.391578 -0.500000 3.225349
v -0.261052 -0.500000 1.982890
v -0.391579 0.500000 3.225349
v -0.261052 0.500000 1.982890
v -0.649319 0.500000 3.029455
v -0.649319 -0.500000 3.029455
v -0.432879 -0.500000 1.952593
v -0.432879 0.500000 1.952593
v -0.601412 0.500000 1.907435
v -0.902117 0.500000 2.863766
v -0.902117 -0.500000 2.863766
v -0.601412 -0.500000 1.907435
v -0.765367 0.500000 1.847760
v -0.765367 0.500000 1.847760
v -0.765367 -0.500000 1.847760
v -0.765367 -0.500000 1.847760
v -1.148050 -0.500000 2.771640
v -1.148050 -0.500000 2.771640
v -1.148050 0.500000 2.771640
v -1.148050 0.500000 2.771640
vn 0.9239 0.0000 -0.3827
vn -0.3007 0.0000 -0.9537
vn -0.2164 0.0000 -0.9763
vn 0.3508 0.0000 0.9364
vn 0.4523 0.0000 0.8919
vn -0.3420 0.0000 -0.9397
vn 0.0000 1.0000 0.0000
vn 0.0000 -1.0000 0.0000
vn 0.5770 0.0000 0.8167
vn 0.4878 0.0000 0.8729
vn 0.1836 0.0000 0.9830
vn -0.1305 0.0000 -0.9914
vn -0.0436 0.0000 -0.9990
vn -0.1836 0.0000 0.9830
vn 0.0436 0.0000 -0.9990
vn -0.4878 0.0000 0.8729
vn -0.5770 0.0000 0.8167
vn 0.1305 0.0000 -0.9914
vn 0.2164 0.0000 -0.9763
vn -0.4523 0.0000 0.8919
vn -0.3508 0.0000 0.9364
vn 0.3007 0.0000 -0.9537
vn -0.9239 0.0000 -0.3827
vn 0.3420 0.0000 -0.9397
s 1
f 43//1 41//1 47//1 45//1
f 52//2 51//2 53//3 54//3
f 46//4 48//4 49//5 6//5
f 42//6 44//6 51//2 52//2
f 4//7 3//7 7//7 8//7
f 1//8 2//8 50//8 5//8
f 12//7 11//7 15//7 16//7
f 8//7 7//7 11//7 12//7
f 5//8 50//8 56//8 9//8
f 6//5 49//5 55//9 10//9
f 14//10 58//10 61//11 18//11
f 9//8 56//8 59//8 13//8
f 10//9 55//9 58//10 14//10
f 54//3 53//3 60//12 57//12
f 20//7 19//7 23//7 24//7
f 57//12 60//12 63//13 64//13
f 16//7 15//7 19//7 20//7
f 13//8 59//8 62//8 17//8
f 21//8 67//8 69//8 25//8
f 17//8 62//8 67//8 21//8
f 18//11 61//11 66//14 22//14
f 64//13 63//13 68//15 65//15
f 26//16 71//16 73//17 30//17
f 22//14 66//14 71//16 26//16
f 65//15 68//15 70//18 72//18
f 24//7 23//7 27//7 28//7
f 32//7 31//7 35//7 36//7
f 72//18 70//18 75//19 76//19
f 28//7 27//7 31//7 32//7
f 25//8 69//8 74//8 29//8
f 34//20 78//20 87//21 86//21
f 29//8 74//8 79//8 33//8
f 30//17 73//17 78//20 34//20
f 76//19 75//19 80//22 77//22
f 83//23 85//23 88//23 81//23
f 77//22 80//22 84//24 82//24
f 36//7 35//7 39//7 40//7
f 33//8 79//8 38//8 37//8
