# Blender v2.80 (sub 41) OBJ File: 'flower_smooth_6.blend'
# www.blender.org
v 1.000000 -0.500000 1.732051
v 1.500000 -0.500000 2.598076
v 1.000000 0.500000 1.732051
v 1.500000 0.500000 2.598076
v 0.792159 -0.500000 1.836432
v 1.188239 -0.500000 2.797591
v 0.792159 0.500000 1.836432
v 1.188239 0.500000 2.797591
v 0.573606 -0.500000 1.915979
v 0.860410 -0.500000 3.082217
v 0.573606 0.500000 1.915979
v 0.860410 0.500000 3.082217
v 0.347296 -0.500000 1.969616
v 0.520944 -0.500000 3.316586
v 0.347296 0.500000 1.969616
v 0.520944 0.500000 3.316586
v 0.116290 -0.500000 1.996616
v 0.174434 -0.500000 3.412467
v 0.116290 0.500000 1.996616
v 0.174434 0.500000 3.412467
v -0.116290 -0.500000 1.996616
v -0.174435 -0.500000 3.412467
v -0.116290 0.500000 1.996616
v -0.174435 0.500000 3.412467
v -0.347296 -0.500000 1.969616
v -0.520944 -0.500000 3.316586
v -0.347296 0.500000 1.969616
v -0.520944 0.500000 3.316586
v -0.573606 -0.500000 1.915979
v -0.860410 -0.500000 3.082217
v -0.573606 0.500000 1.915979
v -0.860410 0.500000 3.082217
v -0.792159 -0.500000 1.836432
v -1.188239 -0.500000 2.797591
v -0.792159 0.500000 1.836432
v -1.188239 0.500000 2.797591
v -1.000000 -0.500000 1.732051
v -1.499999 -0.500000 2.598076
v -1.000000 0.500000 1.732051
v -1.499999 0.500000 2.598076
v 1.000000 0.500000 1.732051
v 1.000000 0.500000 1.732051
v 1.000000 -0.500000 1.732051
v 1.000000 -0.500000 1.732051
v 1.500000 -0.500000 2.598076
v 1.500000 -0.500000 2.598076
v 1.500000 0.500000 2.598076
v 1.500000 0.500000 2.598076
v 0.792159 0.500000 1.836432
v 1.188239 0.500000 2.797591
v 1.188239 -0.500000 2.797591
v 0.792159 -0.500000 1.836432
v 0.860410 -0.500000 3.082217
v 0.573606 -0.500000 1.915979
v 0.860410 0.500000 3.082217
v 0.573606 0.500000 1.915979
v 0.520944 0.500000 3.316586
v 0.520944 -0.500000 3.316586
v 0.347296 -0.500000 1.969616
v 0.347296 0.500000 1.969616
v 0.116290 0.500000 1.996616
v 0.174434 0.500000 3.412467
v 0.174434 -0.500000 3.412467
v 0.116290 -0.500000 1.996616
v -0.174435 0.500000 3.412467
v -0.174435 -0.500000 3.412467
v -0.116290 -0.500000 1.996616
v -0.116290 0.500000 1.996616
v -0.520944 0.500000 3.316586
v -0.520944 -0.500000 3.316586
v -0.347296 -0.500000 1.969616
v -0.347296 0.500000 1.969616
v -0.573606 0.500000 1.915979
v -0.860410 0.500000 3.082217
v -0.860410 -0.500000 3.082217
v -0.573606 -0.500000 1.915979
v -1.188239 0.500000 2.797591
v -1.188239 -0.500000 2.797591
v -0.792159 -0.500000 1.836432
v -0.792159 0.500000 1.836432
v -1.000000 0.500000 1.732051
v -1.000000 0.500000 1.732051
v -1.000000 -0.500000 1.732051
v -1.000000 -0.500000 1.732051
v -1.499999 -0.500000 2.598076
v -1.499999 -0.500000 2.598076
v -1.499999 0.500000 2.598076
v -1.499999 0.500000 2.598076
vn 0.8660 0.0000 -0.5000
vn 0.0000 -1.0000 0.0000
vn 0.0000 1.0000 0.0000
vn 0.5390 0.0000 0.8423
vn 0.5989 0.0000 0.8008
vn -0.4488 0.0000 -0.8936
vn -0.3961 0.0000 -0.9182
vn 0.6128 0.0000 0.7902
vn 0.4233 0.0000 0.9060
vn -0.2868 0.0000 -0.9580
vn -0.1736 0.0000 -0.9848
vn 0.1346 0.0000 0.9909
vn -0.1346 0.0000 0.9909
vn -0.0581 0.0000 -0.9983
vn -0.4233 0.0000 0.9060
vn 0.0581 0.0000 -0.9983
vn 0.1736 0.0000 -0.9848
vn -0.6128 0.0000 0.7902
vn -0.5989 0.0000 0.8008
vn 0.2868 0.0000 -0.9580
vn 0.3961 0.0000 -0.9182
vn 0.4488 0.0000 -0.8936
vn -0.8660 0.0000 -0.5000
vn -0.5390 0.0000 0.8423
s 1
f 43//1 41//1 47//1 45//1
f 5//2 51//2 53//2 9//2
f 48//3 42//3 7//3 8//3
f 44//2 46//2 51//2 5//2
f 2//4 4//4 50//5 6//5
f 3//6 1//6 52//7 49//7
f 10//8 55//8 57//9 14//9
f 6//5 50//5 55//8 10//8
f 49//7 52//7 54//10 56//10
f 8//3 7//3 11//3 12//3
f 16//3 15//3 19//3 20//3
f 56//10 54//10 59//11 60//11
f 12//3 11//3 15//3 16//3
f 9//2 53//2 58//2 13//2
f 18//12 62//12 65//13 22//13
f 13//2 58//2 63//2 17//2
f 14//9 57//9 62//12 18//12
f 60//11 59//11 64//14 61//14
f 22//13 65//13 69//15 26//15
f 61//14 64//14 67//16 68//16
f 20//3 19//3 23//3 24//3
f 17//2 63//2 66//2 21//2
f 28//3 27//3 31//3 32//3
f 68//16 67//16 71//17 72//17
f 24//3 23//3 27//3 28//3
f 21//2 66//2 70//2 25//2
f 30//18 74//18 77//19 34//19
f 25//2 70//2 75//2 29//2
f 26//15 69//15 74//18 30//18
f 72//17 71//17 76//20 73//20
f 80//21 79//21 83//22 81//22
f 73//20 76//20 79//21 80//21
f 32//3 31//3 35//3 36//3
f 29//2 75//2 78//2 33//2
f 84//23 85//23 87//23 82//23
f 36//3 35//3 39//3 88//3
f 33//2 78//2 86//2 37//2
f 34//19 77//19 40//24 38//24
