# Blender v2.80 (sub 41) OBJ File: ''
# www.blender.org
v 0.618034 -0.500000 1.902113
v 0.871428 -0.500000 2.681980
v 0.618034 0.500000 1.902113
v 0.871428 0.500000 2.681980
v -0.618034 -0.500000 1.902113
v -0.871428 -0.500000 2.681980
v -0.618034 0.500000 1.902113
v -0.871428 0.500000 2.681980
vn 0.9511 0.0000 -0.3090
vn 0.0000 0.0000 1.0000
vn 0.0000 0.0000 -1.0000
vn -0.0000 1.0000 -0.0000
vn 0.0000 -1.0000 0.0000
vn -0.9511 0.0000 -0.3090
s off
f 1//1 3//1 4//1 2//1
f 2//2 4//2 8//2 6//2
f 3//3 1//3 5//3 7//3
f 4//4 3//4 7//4 8//4
f 1//5 2//5 6//5 5//5
f 5//6 6//6 8//6 7//6
