# Blender v2.80 (sub 41) OBJ File: 'saw_8.blend'
# www.blender.org
mtllib saw_8.mtl
o Plane
v 0.765367 -0.500000 1.847759
v 1.396323 -0.500000 3.371021
v 0.765367 0.500000 1.847759
v 1.396323 0.500000 3.371021
v 0.517638 -0.500000 1.931852
v 0.918816 -0.500000 3.429067
v 0.517638 0.500000 1.931852
v 0.918816 0.500000 3.429067
v 0.261052 -0.500000 1.982890
v 0.446076 -0.500000 3.388284
v 0.261052 0.500000 1.982890
v 0.446076 0.500000 3.388284
v 0.000000 -0.500000 2.000000
v -0.000000 -0.500000 3.282869
v -0.000000 0.500000 2.000000
v -0.000000 0.500000 3.282869
v -0.261052 -0.500000 1.982890
v -0.411518 -0.500000 3.125785
v -0.261052 0.500000 1.982890
v -0.411518 0.500000 3.125785
v -0.517638 -0.500000 1.931852
v -0.791533 -0.500000 2.954041
v -0.517638 0.500000 1.931852
v -0.791533 0.500000 2.954041
v -0.765367 -0.500000 1.847759
v -1.148050 -0.500002 2.771638
v -0.765367 0.500000 1.847759
v -1.148050 0.499998 2.771638
v 0.765367 0.500000 1.847759
v 0.765367 0.500000 1.847759
v 0.765367 -0.500000 1.847759
v 0.765367 -0.500000 1.847759
v 1.396323 -0.500000 3.371021
v 1.396323 -0.500000 3.371021
v 1.396323 0.500000 3.371021
v 1.396323 0.500000 3.371021
v 0.918816 -0.500000 3.429067
v 0.517638 -0.500000 1.931852
v 0.918816 0.500000 3.429067
v 0.517638 0.500000 1.931852
v 0.446076 0.500000 3.388284
v 0.446076 -0.500000 3.388284
v 0.261052 -0.500000 1.982890
v 0.261052 0.500000 1.982890
v 0.000000 -0.500000 2.000000
v -0.000000 0.500000 2.000000
v -0.000000 0.500000 3.282869
v -0.000000 -0.500000 3.282869
v -0.261052 0.500000 1.982890
v -0.411518 0.500000 3.125785
v -0.411518 -0.500000 3.125785
v -0.261052 -0.500000 1.982890
v -0.791533 0.500000 2.954041
v -0.791533 -0.500000 2.954041
v -0.517638 -0.500000 1.931852
v -0.517638 0.500000 1.931852
v -0.765367 0.500000 1.847759
v -0.765367 0.500000 1.847759
v -0.765367 -0.500000 1.847759
v -0.765367 -0.500000 1.847759
v -1.148050 -0.500002 2.771638
v -1.148050 -0.500002 2.771638
v -1.148050 0.499998 2.771638
v -1.148050 0.499998 2.771638
vt 0.000000 0.000000
vt 0.000000 1.000000
vt 1.000000 1.000000
vt 1.000000 0.000000
vt 1.000000 0.000000
vt 1.000000 1.000000
vt 1.000000 1.000000
vt 1.000000 0.000000
vt 0.000000 0.000000
vt 1.000000 0.000000
vt 1.000000 0.000000
vt 0.000000 0.000000
vt 1.000000 0.000000
vt 1.000000 1.000000
vt 0.000000 1.000000
vt 0.000000 0.000000
vt 0.000000 0.000000
vt 0.000000 1.000000
vt 1.000000 1.000000
vt 0.000000 1.000000
vt 0.000000 1.000000
vt 1.000000 1.000000
vt 0.000000 1.000000
vt 0.000000 0.000000
vt 0.000000 0.000000
vt 0.000000 1.000000
vt 0.000000 1.000000
vt 1.000000 1.000000
vt 1.000000 0.000000
vt 0.000000 0.000000
vt 1.000000 1.000000
vt 0.000000 1.000000
vt 0.000000 1.000000
vt 1.000000 1.000000
vt 1.000000 0.000000
vt 0.000000 0.000000
vt 1.000000 1.000000
vt 1.000000 0.000000
vt 1.000000 0.000000
vt 1.000000 1.000000
vt 1.000000 1.000000
vt 1.000000 0.000000
vt 1.000000 0.000000
vt 0.000000 0.000000
vt 0.000000 0.000000
vt 0.000000 1.000000
vt 1.000000 1.000000
vt 0.000000 1.000000
vt 0.000000 1.000000
vt 1.000000 1.000000
vt 0.000000 0.000000
vt 0.000000 1.000000
vt 1.000000 0.000000
vt 0.000000 0.000000
vt 0.000000 0.000000
vt 1.000000 0.000000
vt 1.000000 1.000000
vt 0.000000 1.000000
vt 1.000000 0.000000
vt 0.000000 0.000000
vt 1.000000 1.000000
vt 1.000000 0.000000
vt 0.000000 0.000000
vt 0.000000 1.000000
vn 0.9239 0.0000 -0.3827
vn 0.0174 0.0000 0.9998
vn -0.1584 0.0000 0.9874
vn 0.0000 -1.0000 0.0000
vn 0.1207 0.0000 0.9927
vn -0.3214 0.0000 -0.9469
vn -0.2588 0.0000 -0.9659
vn 0.0000 1.0000 0.0000
vn -0.1305 0.0000 -0.9914
vn 0.0000 0.0000 -1.0000
vn -0.2939 0.0000 0.9558
vn -0.3844 0.0000 0.9232
vn -0.4338 0.0000 0.9010
vn 0.1305 0.0000 -0.9914
vn 0.2588 0.0000 -0.9659
vn -0.9239 0.0000 -0.3827
vn -0.4555 0.0000 0.8902
vn 0.3214 0.0000 -0.9469
usemtl None
s 1
f 31/1/1 29/2/1 35/3/1 33/4/1
f 6/5/2 39/6/2 41/7/3 10/8/3
f 32/9/4 34/10/4 37/11/4 5/12/4
f 2/13/5 36/14/5 39/6/2 6/5/2
f 30/15/6 1/16/6 38/17/7 40/18/7
f 4/19/8 3/20/8 7/21/8 8/22/8
f 44/23/9 43/24/9 45/25/10 46/26/10
f 40/18/7 38/17/7 43/24/9 44/23/9
f 8/22/8 7/21/8 11/27/8 12/28/8
f 5/12/4 37/11/4 42/29/4 9/30/4
f 16/31/8 15/32/8 19/33/8 20/34/8
f 12/28/8 11/27/8 15/32/8 16/31/8
f 9/30/4 42/29/4 48/35/4 13/36/4
f 10/8/3 41/7/3 47/37/11 14/38/11
f 18/39/12 50/40/12 53/41/13 22/42/13
f 13/36/4 48/35/4 51/43/4 17/44/4
f 14/38/11 47/37/11 50/40/12 18/39/12
f 46/26/10 45/25/10 52/45/14 49/46/14
f 24/47/8 23/48/8 58/49/8 64/50/8
f 49/46/14 52/45/14 55/51/15 56/52/15
f 20/34/8 19/33/8 23/48/8 24/47/8
f 17/44/4 51/43/4 54/53/4 21/54/4
f 59/55/16 61/56/16 63/57/16 57/58/16
f 21/54/4 54/53/4 62/59/4 60/60/4
f 22/42/13 53/41/13 28/61/17 26/62/17
f 56/52/15 55/51/15 25/63/18 27/64/18
