# Blender v2.80 (sub 41) OBJ File: 'shuriken_10.blend'
# www.blender.org
v 0.618034 -0.500000 1.902113
v 1.127532 -0.500000 3.470183
v 0.618034 0.500000 1.902113
v 1.127532 0.500000 3.470183
v -0.618034 -0.500000 1.902114
v -0.927051 -0.500002 2.853169
v -0.618034 0.500000 1.902113
v -0.927051 0.499998 2.853169
vn 0.9511 0.0000 -0.3090
vn -0.0000 -0.0000 -1.0000
vn -0.0000 1.0000 0.0000
vn 0.0000 -1.0000 -0.0000
vn -0.2876 -0.0000 0.9577
vn -0.9511 0.0000 -0.3090
s off
f 1//1 3//1 4//1 2//1
f 3//2 1//2 5//2 7//2
f 4//3 3//3 7//3 8//3
f 1//4 2//4 6//4 5//4
f 2//5 4//5 8//5 6//5
f 5//6 6//6 8//6 7//6
