# Blender v2.80 (sub 41) OBJ File: ''
# www.blender.org
v 0.618034 -0.500000 1.902113
v 0.927051 -0.500000 2.853170
v 0.618034 0.500000 1.902113
v 0.927051 0.500000 2.853170
v 0.415823 -0.500000 1.956295
v 0.623735 -0.500000 2.934443
v 0.415823 0.500000 1.956295
v 0.623735 0.500000 2.934443
v 0.209057 -0.500000 1.989044
v 0.313585 -0.500000 2.983566
v 0.209057 0.500000 1.989044
v 0.313585 0.500000 2.983566
v 0.000000 -0.500000 2.000000
v 0.000000 -0.500000 3.000000
v -0.000000 0.500000 2.000000
v 0.000000 0.500000 3.000000
v -0.209057 -0.500000 1.989044
v -0.313585 -0.500000 2.983566
v -0.209057 0.500000 1.989044
v -0.313585 0.500000 2.983566
v -0.415823 -0.500000 1.956295
v -0.623735 -0.500000 2.934443
v -0.415823 0.500000 1.956295
v -0.623735 0.500000 2.934443
v -0.618034 -0.500000 1.902113
v -0.927051 -0.500000 2.853170
v -0.618034 0.500000 1.902113
v -0.927051 0.500000 2.853170
v 0.618034 0.500000 1.902113
v 0.618034 0.500000 1.902113
v 0.618034 -0.500000 1.902113
v 0.618034 -0.500000 1.902113
v 0.927051 -0.500000 2.853170
v 0.927051 -0.500000 2.853170
v 0.927051 0.500000 2.853170
v 0.927051 0.500000 2.853170
v 0.623735 0.500000 2.934443
v 0.623735 -0.500000 2.934443
v 0.415823 -0.500000 1.956295
v 0.415823 0.500000 1.956295
v 0.209057 -0.500000 1.989044
v 0.209057 0.500000 1.989044
v 0.313585 0.500000 2.983566
v 0.313585 -0.500000 2.983566
v -0.000000 0.500000 2.000000
v 0.000000 0.500000 3.000000
v 0.000000 -0.500000 3.000000
v 0.000000 -0.500000 2.000000
v -0.313585 0.500000 2.983566
v -0.313585 -0.500000 2.983566
v -0.209057 -0.500000 1.989044
v -0.209057 0.500000 1.989044
v -0.415823 0.500000 1.956295
v -0.623735 0.500000 2.934443
v -0.623735 -0.500000 2.934443
v -0.415823 -0.500000 1.956295
v -0.618034 0.500000 1.902113
v -0.618034 0.500000 1.902113
v -0.618034 -0.500000 1.902113
v -0.618034 -0.500000 1.902113
v -0.927051 -0.500000 2.853170
v -0.927051 -0.500000 2.853170
v -0.927051 0.500000 2.853170
v -0.927051 0.500000 2.853170
vn 0.9510 0.0000 -0.3090
vn -0.2079 0.0000 -0.9781
vn -0.1045 0.0000 -0.9945
vn 0.2588 0.0000 0.9659
vn 0.2079 0.0000 0.9781
vn -0.2588 0.0000 -0.9659
vn 0.0000 1.0000 0.0000
vn 0.0000 -1.0000 0.0000
vn 0.1045 0.0000 0.9945
vn 0.0000 0.0000 1.0000
vn -0.1045 0.0000 0.9945
vn 0.0000 0.0000 -1.0000
vn 0.1045 0.0000 -0.9945
vn -0.2079 0.0000 0.9781
vn 0.2079 0.0000 -0.9781
vn -0.9510 0.0000 -0.3090
vn -0.2588 0.0000 0.9659
vn 0.2588 0.0000 -0.9659
s 1
f 31//1 29//1 35//1 33//1
f 40//2 39//2 41//3 42//3
f 34//4 36//4 37//5 6//5
f 30//6 32//6 39//2 40//2
f 4//7 3//7 7//7 8//7
f 1//8 2//8 38//8 5//8
f 12//7 11//7 15//7 16//7
f 8//7 7//7 11//7 12//7
f 5//8 38//8 44//8 9//8
f 6//5 37//5 43//9 10//9
f 14//10 46//10 49//11 18//11
f 9//8 44//8 47//8 13//8
f 10//9 43//9 46//10 14//10
f 42//3 41//3 48//12 45//12
f 20//7 19//7 23//7 24//7
f 45//12 48//12 51//13 52//13
f 16//7 15//7 19//7 20//7
f 13//8 47//8 50//8 17//8
f 21//8 55//8 61//8 60//8
f 17//8 50//8 55//8 21//8
f 18//11 49//11 54//14 22//14
f 52//13 51//13 56//15 53//15
f 59//16 62//16 63//16 57//16
f 22//14 54//14 64//17 26//17
f 53//15 56//15 25//18 58//18
f 24//7 23//7 27//7 28//7
