# Blender v2.80 (sub 41) OBJ File: 'flower_smooth_10.blend'
# www.blender.org
v 0.618034 -0.500000 1.902113
v 0.927051 -0.500000 2.853170
v 0.618034 0.500000 1.902113
v 0.927051 0.500000 2.853170
v 0.483844 -0.500000 1.940592
v 0.725766 -0.500000 2.934209
v 0.483844 0.500000 1.940592
v 0.725766 0.500000 2.934208
v 0.347296 -0.500000 1.969616
v 0.520945 -0.500000 3.087133
v 0.347296 0.500000 1.969616
v 0.520945 0.500000 3.087133
v 0.209057 -0.500000 1.989044
v 0.313586 -0.500000 3.242825
v 0.209057 0.500000 1.989044
v 0.313585 0.500000 3.242825
v 0.069799 -0.500000 1.998782
v 0.104699 -0.500000 3.318141
v 0.069799 0.500000 1.998782
v 0.104699 0.500000 3.318141
v -0.069799 -0.500000 1.998783
v -0.104698 -0.500000 3.318141
v -0.069799 0.500000 1.998783
v -0.104698 0.500000 3.318141
v -0.209057 -0.500000 1.989045
v -0.313585 -0.500000 3.242826
v -0.209057 0.500000 1.989045
v -0.313585 0.500000 3.242826
v -0.347296 -0.500000 1.969617
v -0.520944 -0.500000 3.087134
v -0.347296 0.500000 1.969617
v -0.520944 0.500000 3.087134
v -0.483844 -0.500000 1.940593
v -0.725765 -0.500000 2.934210
v -0.483844 0.500000 1.940593
v -0.725765 0.500000 2.934210
v -0.618034 -0.500000 1.902115
v -0.927051 -0.500000 2.853171
v -0.618034 0.500000 1.902115
v -0.927051 0.500000 2.853171
v 0.618034 0.500000 1.902113
v 0.618034 0.500000 1.902113
v 0.618034 -0.500000 1.902113
v 0.618034 -0.500000 1.902113
v 0.927051 -0.500000 2.853170
v 0.927051 -0.500000 2.853170
v 0.927051 0.500000 2.853170
v 0.927051 0.500000 2.853170
v 0.725766 0.500000 2.934208
v 0.725766 -0.500000 2.934209
v 0.483844 -0.500000 1.940592
v 0.483844 0.500000 1.940592
v 0.347296 0.500000 1.969616
v 0.520945 0.500000 3.087133
v 0.520945 -0.500000 3.087133
v 0.347296 -0.500000 1.969616
v 0.313586 -0.500000 3.242825
v 0.209057 -0.500000 1.989044
v 0.313585 0.500000 3.242825
v 0.209057 0.500000 1.989044
v 0.104699 0.500000 3.318141
v 0.104699 -0.500000 3.318141
v 0.069799 -0.500000 1.998782
v 0.069799 0.500000 1.998782
v -0.069799 0.500000 1.998783
v -0.104698 0.500000 3.318141
v -0.104698 -0.500000 3.318141
v -0.069799 -0.500000 1.998783
v -0.313585 0.500000 3.242826
v -0.313585 -0.500000 3.242826
v -0.209057 -0.500000 1.989045
v -0.209057 0.500000 1.989045
v -0.520944 0.500000 3.087134
v -0.520944 -0.500000 3.087134
v -0.347296 -0.500000 1.969617
v -0.347296 0.500000 1.969617
v -0.483844 0.500000 1.940593
v -0.725765 0.500000 2.934210
v -0.725765 -0.500000 2.934210
v -0.483844 -0.500000 1.940593
v -0.618034 0.500000 1.902115
v -0.618034 0.500000 1.902115
v -0.618034 -0.500000 1.902115
v -0.618034 -0.500000 1.902115
v -0.927051 -0.500000 2.853171
v -0.927051 -0.500000 2.853171
v -0.927051 0.500000 2.853171
v -0.927051 0.500000 2.853171
vn 0.9510 0.0000 -0.3090
vn 0.0000 1.0000 0.0000
vn 0.3735 0.0000 0.9276
vn 0.4899 0.0000 0.8717
vn -0.2756 0.0000 -0.9612
vn -0.2419 0.0000 -0.9703
vn 0.0000 -1.0000 0.0000
vn 0.5993 0.0000 0.8005
vn -0.1736 0.0000 -0.9848
vn 0.4751 0.0000 0.8799
vn 0.1722 0.0000 0.9850
vn -0.1045 0.0000 -0.9945
vn -0.0349 0.0000 -0.9994
vn -0.1722 0.0000 0.9850
vn -0.4751 0.0000 0.8799
vn 0.0349 0.0000 -0.9994
vn -0.5993 0.0000 0.8005
vn 0.1045 0.0000 -0.9945
vn 0.1736 0.0000 -0.9848
vn -0.4899 0.0000 0.8717
vn -0.3735 0.0000 0.9276
vn 0.2419 0.0000 -0.9703
vn -0.9510 0.0000 -0.3090
vn 0.2756 0.0000 -0.9612
s 1
f 43//1 41//1 47//1 45//1
f 8//2 7//2 11//2 12//2
f 46//3 48//3 49//4 6//4
f 42//5 44//5 51//6 52//6
f 4//2 3//2 7//2 8//2
f 1//7 2//7 50//7 5//7
f 9//7 55//7 57//7 13//7
f 5//7 50//7 55//7 9//7
f 6//4 49//4 54//8 10//8
f 52//6 51//6 56//9 53//9
f 14//10 59//10 61//11 18//11
f 10//8 54//8 59//10 14//10
f 53//9 56//9 58//12 60//12
f 12//2 11//2 15//2 16//2
f 20//2 19//2 23//2 24//2
f 60//12 58//12 63//13 64//13
f 16//2 15//2 19//2 20//2
f 13//7 57//7 62//7 17//7
f 22//14 66//14 69//15 26//15
f 17//7 62//7 67//7 21//7
f 18//11 61//11 66//14 22//14
f 64//13 63//13 68//16 65//16
f 26//15 69//15 73//17 30//17
f 65//16 68//16 71//18 72//18
f 24//2 23//2 27//2 28//2
f 21//7 67//7 70//7 25//7
f 32//2 31//2 35//2 36//2
f 72//18 71//18 75//19 76//19
f 28//2 27//2 31//2 32//2
f 25//7 70//7 74//7 29//7
f 34//20 78//20 87//21 86//21
f 29//7 74//7 79//7 33//7
f 30//17 73//17 78//20 34//20
f 76//19 75//19 80//22 77//22
f 83//23 85//23 88//23 81//23
f 77//22 80//22 84//24 82//24
f 36//2 35//2 39//2 40//2
f 33//7 79//7 38//7 37//7
