# Blender v2.80 (sub 41) OBJ File: 'gear_6.blend'
# www.blender.org
v 1.000000 -0.500000 1.732051
v 1.500000 -0.500000 2.598076
v 1.000000 0.500000 1.732051
v 1.500000 0.500000 2.598076
v 0.765367 -0.500000 1.847759
v 1.148050 -0.500000 2.771639
v 0.765367 0.500000 1.847759
v 1.148050 0.500000 2.771639
v 0.517638 -0.500000 1.931852
v 0.776457 -0.500000 2.897778
v 0.517638 0.500000 1.931852
v 0.776457 0.500000 2.897778
v 0.261052 -0.500000 1.982890
v 0.391578 -0.500000 2.974335
v 0.261052 0.500000 1.982890
v 0.391578 0.500000 2.974335
v -0.000000 -0.500000 2.000000
v -0.000000 -0.500000 3.000000
v -0.000000 0.500000 2.000000
v -0.000000 0.500000 3.000000
v -0.261053 -0.500000 1.982890
v -0.391579 -0.500000 2.974335
v -0.261053 0.500000 1.982890
v -0.391579 0.500000 2.974335
v -0.517638 -0.500000 1.931852
v -0.776458 -0.500000 2.897778
v -0.517638 0.500000 1.931852
v -0.776458 0.500000 2.897778
v -0.765367 -0.500000 1.847759
v -1.148051 -0.500000 2.771639
v -0.765367 0.500000 1.847759
v -1.148051 0.500000 2.771639
v -1.000000 -0.500000 1.732051
v -1.500001 -0.500000 2.598076
v -1.000000 0.500000 1.732051
v -1.500001 0.500000 2.598076
v 0.391578 -0.500000 3.274335
v 0.391578 0.500000 3.274335
v -0.000000 -0.500000 3.300000
v -0.000000 0.500000 3.300000
v -0.391579 -0.500000 3.274335
v -0.391579 0.500000 3.274335
v 1.000000 0.500000 1.732051
v 1.000000 0.500000 1.732051
v 1.000000 -0.500000 1.732051
v 1.000000 -0.500000 1.732051
v 1.500000 -0.500000 2.598076
v 1.500000 -0.500000 2.598076
v 1.500000 0.500000 2.598076
v 1.500000 0.500000 2.598076
v 0.765367 0.500000 1.847759
v 1.148050 0.500000 2.771639
v 1.148050 -0.500000 2.771639
v 0.765367 -0.500000 1.847759
v 0.776457 -0.500000 2.897778
v 0.517638 -0.500000 1.931852
v 0.776457 0.500000 2.897778
v 0.517638 0.500000 1.931852
v 0.391578 -0.500000 2.974335
v 0.391578 -0.500000 2.974335
v 0.391578 0.500000 2.974335
v 0.391578 0.500000 2.974335
v 0.261052 -0.500000 1.982890
v 0.261052 0.500000 1.982890
v -0.391579 -0.500000 2.974335
v -0.391579 -0.500000 2.974335
v -0.391579 -0.500000 3.274335
v -0.391579 -0.500000 3.274335
v -0.000000 0.500000 2.000000
v -0.000000 -0.500000 2.000000
v -0.391579 0.500000 2.974335
v -0.391579 0.500000 2.974335
v -0.261053 -0.500000 1.982890
v -0.261053 0.500000 1.982890
v -0.776458 0.500000 2.897778
v -0.776458 -0.500000 2.897778
v -0.517638 -0.500000 1.931852
v -0.517638 0.500000 1.931852
v -0.765367 0.500000 1.847759
v -1.148051 0.500000 2.771639
v -1.148051 -0.500000 2.771639
v -0.765367 -0.500000 1.847759
v -1.000000 0.500000 1.732051
v -1.000000 0.500000 1.732051
v -1.000000 -0.500000 1.732051
v -1.000000 -0.500000 1.732051
v -1.500001 -0.500000 2.598076
v -1.500001 -0.500000 2.598076
v -1.500001 0.500000 2.598076
v -1.500001 0.500000 2.598076
v 0.391578 -0.500000 3.274335
v 0.391578 -0.500000 3.274335
v 0.391578 0.500000 3.274335
v 0.391578 0.500000 3.274335
v -0.000000 0.500000 3.300000
v -0.000000 -0.500000 3.300000
v -0.391579 0.500000 3.274335
v -0.391579 0.500000 3.274335
vn 0.8660 0.0000 -0.5000
vn 0.0000 -1.0000 0.0000
vn 0.0000 1.0000 0.0000
vn 0.4423 0.0000 0.8968
vn 0.3827 0.0000 0.9239
vn -0.4423 0.0000 -0.8968
vn -0.3827 0.0000 -0.9239
vn 0.2588 0.0000 0.9659
vn 0.1951 0.0000 0.9808
vn -0.2588 0.0000 -0.9659
vn -0.1305 0.0000 -0.9914
vn -1.0000 0.0000 0.0000
vn 0.0000 0.0000 -1.0000
vn -0.1951 0.0000 0.9808
vn -0.2588 0.0000 0.9659
vn 0.1305 0.0000 -0.9914
vn 0.2588 0.0000 -0.9659
vn -0.3827 0.0000 0.9239
vn -0.4423 0.0000 0.8968
vn 0.3827 0.0000 -0.9239
vn -0.8660 0.0000 -0.5000
vn 0.4423 0.0000 -0.8968
vn 0.0000 0.0000 1.0000
vn -0.0654 0.0000 0.9978
vn 0.0654 0.0000 0.9978
vn 1.0000 0.0000 0.0000
s 1
f 45//1 43//1 49//1 47//1
f 5//2 53//2 55//2 9//2
f 50//3 44//3 7//3 8//3
f 46//2 48//2 53//2 5//2
f 2//4 4//4 52//5 6//5
f 3//6 1//6 54//7 51//7
f 10//8 57//8 61//9 60//9
f 6//5 52//5 57//8 10//8
f 51//7 54//7 56//10 58//10
f 8//3 7//3 11//3 12//3
f 62//3 15//3 19//3 20//3
f 58//10 56//10 63//11 64//11
f 12//3 11//3 15//3 62//3
f 9//2 55//2 59//2 13//2
f 18//2 59//2 92//2 39//2
f 13//2 59//2 18//2 17//2
f 71//12 65//12 67//12 97//12
f 64//11 63//11 70//13 69//13
f 22//14 24//14 75//15 26//15
f 69//13 70//13 73//16 74//16
f 20//3 19//3 23//3 72//3
f 17//2 18//2 66//2 21//2
f 28//3 27//3 31//3 32//3
f 74//16 73//16 77//17 78//17
f 72//3 23//3 27//3 28//3
f 21//2 66//2 76//2 25//2
f 30//18 80//18 89//19 88//19
f 25//2 76//2 81//2 29//2
f 26//15 75//15 80//18 30//18
f 78//17 77//17 82//20 79//20
f 85//21 87//21 90//21 83//21
f 79//20 82//20 86//22 84//22
f 32//3 31//3 35//3 36//3
f 29//2 81//2 34//2 33//2
f 96//23 95//23 98//24 68//24
f 91//25 93//25 95//23 96//23
f 66//2 18//2 39//2 41//2
f 14//26 16//26 94//26 37//26
f 62//3 20//3 40//3 38//3
f 20//3 72//3 42//3 40//3
