# Blender v2.80 (sub 41) OBJ File: 'saw_10.blend'
# www.blender.org
mtllib saw_10.mtl
o Plane
v 0.618034 -0.500000 1.902113
v 1.127532 -0.500000 3.470183
v 0.618034 0.500000 1.902113
v 1.127532 0.500000 3.470183
v 0.374763 -0.500000 1.964575
v 0.656773 -0.500000 3.442926
v 0.374763 0.500000 1.964575
v 0.656773 0.500000 3.442926
v 0.125581 -0.500000 1.996054
v 0.212464 -0.500000 3.377022
v 0.125581 0.500000 1.996054
v 0.212464 0.500000 3.377022
v -0.125581 -0.500000 1.996054
v -0.204200 -0.500000 3.245670
v -0.125581 0.500000 1.996054
v -0.204200 0.500000 3.245670
v -0.374763 -0.500000 1.964575
v -0.583858 -0.500000 3.060692
v -0.374763 0.500000 1.964575
v -0.583858 0.500000 3.060692
v -0.618034 -0.500000 1.902114
v -0.927051 -0.500002 2.853169
v -0.618034 0.500000 1.902113
v -0.927051 0.499998 2.853169
v 0.618034 0.500000 1.902113
v 0.618034 0.500000 1.902113
v 0.618034 -0.500000 1.902113
v 0.618034 -0.500000 1.902113
v 1.127532 -0.500000 3.470183
v 1.127532 -0.500000 3.470183
v 1.127532 0.500000 3.470183
v 1.127532 0.500000 3.470183
v 0.374763 -0.500000 1.964575
v 0.374763 0.500000 1.964575
v 0.656773 0.500000 3.442926
v 0.656773 -0.500000 3.442926
v 0.125581 0.500000 1.996054
v 0.212464 0.500000 3.377022
v 0.212464 -0.500000 3.377022
v 0.125581 -0.500000 1.996054
v -0.204200 0.500000 3.245670
v -0.204200 -0.500000 3.245670
v -0.125581 -0.500000 1.996054
v -0.125581 0.500000 1.996054
v -0.583858 0.500000 3.060692
v -0.583858 -0.500000 3.060692
v -0.374763 -0.500000 1.964575
v -0.374763 0.500000 1.964575
v -0.618034 0.500000 1.902113
v -0.618034 0.500000 1.902113
v -0.618034 -0.500000 1.902114
v -0.618034 -0.500000 1.902114
v -0.927051 -0.500002 2.853169
v -0.927051 -0.500002 2.853169
v -0.927051 0.499998 2.853169
v -0.927051 0.499998 2.853169
vt 0.000000 0.000000
vt 0.000000 1.000000
vt 1.000000 1.000000
vt 1.000000 0.000000
vt 1.000000 1.000000
vt 0.000000 1.000000
vt 0.000000 1.000000
vt 1.000000 1.000000
vt 0.000000 1.000000
vt 0.000000 0.000000
vt 0.000000 0.000000
vt 0.000000 1.000000
vt 1.000000 1.000000
vt 0.000000 1.000000
vt 0.000000 0.000000
vt 1.000000 0.000000
vt 1.000000 0.000000
vt 0.000000 0.000000
vt 1.000000 0.000000
vt 1.000000 1.000000
vt 1.000000 1.000000
vt 1.000000 0.000000
vt 1.000000 0.000000
vt 1.000000 1.000000
vt 1.000000 1.000000
vt 1.000000 0.000000
vt 1.000000 0.000000
vt 0.000000 0.000000
vt 0.000000 0.000000
vt 0.000000 1.000000
vt 1.000000 1.000000
vt 1.000000 0.000000
vt 0.000000 0.000000
vt 0.000000 1.000000
vt 0.000000 1.000000
vt 1.000000 1.000000
vt 1.000000 0.000000
vt 0.000000 0.000000
vt 1.000000 1.000000
vt 0.000000 1.000000
vt 0.000000 1.000000
vt 1.000000 1.000000
vt 0.000000 0.000000
vt 0.000000 1.000000
vt 1.000000 0.000000
vt 0.000000 0.000000
vt 0.000000 0.000000
vt 1.000000 0.000000
vt 1.000000 1.000000
vt 0.000000 1.000000
vt 1.000000 0.000000
vt 0.000000 0.000000
vt 1.000000 1.000000
vt 1.000000 0.000000
vt 0.000000 0.000000
vt 0.000000 1.000000
vn 0.9510 0.0000 -0.3090
vn 0.0000 1.0000 0.0000
vn -0.2487 0.0000 -0.9686
vn -0.1874 0.0000 -0.9823
vn 0.0000 -1.0000 0.0000
vn -0.0578 0.0000 0.9983
vn -0.1024 0.0000 0.9947
vn -0.2244 0.0000 0.9745
vn -0.3703 0.0000 0.9289
vn -0.0628 0.0000 -0.9980
vn -0.4782 0.0000 0.8782
vn 0.0628 0.0000 -0.9980
vn 0.1874 0.0000 -0.9823
vn -0.9510 0.0000 -0.3090
vn -0.5174 0.0000 0.8557
vn 0.2487 0.0000 -0.9686
usemtl None
s 1
f 27/1/1 25/2/1 31/3/1 29/4/1
f 8/5/2 7/6/2 11/7/2 12/8/2
f 26/9/3 28/10/3 33/11/4 34/12/4
f 32/13/2 3/14/2 7/6/2 8/5/2
f 1/15/5 30/16/5 36/17/5 5/18/5
f 2/19/6 4/20/6 35/21/7 6/22/7
f 10/23/8 38/24/8 41/25/9 14/26/9
f 5/18/5 36/17/5 39/27/5 9/28/5
f 6/22/7 35/21/7 38/24/8 10/23/8
f 34/12/4 33/11/4 40/29/10 37/30/10
f 14/26/9 41/25/9 45/31/11 18/32/11
f 37/30/10 40/29/10 43/33/12 44/34/12
f 12/8/2 11/7/2 15/35/2 16/36/2
f 9/28/5 39/27/5 42/37/5 13/38/5
f 20/39/2 19/40/2 50/41/2 56/42/2
f 44/34/12 43/33/12 47/43/13 48/44/13
f 16/36/2 15/35/2 19/40/2 20/39/2
f 13/38/5 42/37/5 46/45/5 17/46/5
f 51/47/14 53/48/14 55/49/14 49/50/14
f 17/46/5 46/45/5 54/51/5 52/52/5
f 18/32/11 45/31/11 24/53/15 22/54/15
f 48/44/13 47/43/13 21/55/16 23/56/16
