#Sphere001.obj

v -0.3 5.841216E-08 -4.88762E-08
v -0.2942356 -0.05740245 0.01141805
v -0.2942356 -0.05852704 -2.886651E-08
v -0.2771639 -0.112599 0.02239735
v -0.2771639 -0.114805 -7.747494E-09
v -0.2771639 -0.106066 0.04393399
v -0.2942356 -0.05407192 0.02239733
v -0.3 5.841216E-08 -4.88762E-08
v -0.2771639 -0.09545681 0.06378227
v -0.2942356 -0.04866343 0.03251589
v -0.3 5.841216E-08 -4.88762E-08
v -0.2771639 -0.08117931 0.08117943
v -0.2942356 -0.04138482 0.04138489
v -0.3 5.841216E-08 -4.88762E-08
v -0.2771639 -0.06378214 0.09545691
v -0.2942356 -0.03251582 0.04866348
v -0.3 5.841216E-08 -4.88762E-08
v -0.2771639 -0.04393385 0.106066
v -0.2942356 -0.02239725 0.05407196
v -0.3 5.841216E-08 -4.88762E-08
v -0.2771639 -0.0223972 0.1125991
v -0.2942356 -0.01141796 0.05740248
v -0.3 5.841216E-08 -4.88762E-08
v -0.2771639 1.648214E-07 0.114805
v -0.2942356 1.138035E-07 0.05852705
v -0.3 5.841216E-08 -4.88762E-08
v -0.2494409 -0.09259734 0.1385819
v -0.2494409 -0.1178541 0.1178543
v -0.2494409 -0.06378208 0.153984
v -0.2494409 -0.03251572 0.1634685
v -0.2494409 2.095054E-07 0.166671
v -0.2121321 -0.1178541 0.1763814
v -0.2121321 -0.1499999 0.1500001
v -0.2494409 -0.1385818 0.09259752
v -0.2494409 -0.1539839 0.06378228
v -0.2494409 -0.1634685 0.03251594
v -0.2494409 -0.166671 1.366925E-08
v -0.2121321 -0.2080559 0.04138496
v -0.2121321 -0.212132 3.45607E-08
v -0.2121321 -0.1959844 0.08117946
v -0.2121321 -0.1763812 0.1178543
v -0.1666711 -0.2446479 0.04866358
v -0.1666711 -0.2494408 5.4124E-08
v -0.1666711 -0.2304532 0.09545698
v -0.1666711 -0.2074024 0.138582
v -0.1666711 -0.1763812 0.1763815
v -0.1666711 -0.1385818 0.2074026
v -0.1666711 -0.09545668 0.2304534
v -0.2121321 -0.08117922 0.1959845
v -0.2121321 -0.04138468 0.208056
v -0.2121321 2.461381E-07 0.212132
v -0.1666711 -0.04866326 0.244648
v -0.1666711 2.73312E-07 0.2494409
v -0.1148051 -0.2304532 0.1539841
v -0.1148051 -0.1959843 0.1959846
v -0.1148051 -0.1060658 0.2560661
v -0.1148051 -0.1539838 0.2304534
v -0.1148051 2.899826E-07 0.2771638
v -0.1148051 -0.05407172 0.2718382
v -0.05852718 -0.2080558 0.2080561
v -0.05852718 -0.2446478 0.1634687
v -0.1148051 -0.2560659 0.1060661
v -0.1148051 -0.2718382 0.05407208
v -0.1148051 -0.2771638 7.160734E-08
v -0.05852717 -0.2885818 0.05740262
v -0.05852716 -0.2942356 8.633884E-08
v -0.05852718 -0.2718382 0.1125992
v -0.05852715 2.955093E-07 0.2942356
v -0.05852716 -0.05740225 0.288582
v -0.05852717 -0.1125988 0.2718383
v -0.05852718 -0.1634683 0.2446481
v -8.947443E-08 -0.2942356 0.05852722
v -8.106154E-08 -0.3 9.775241E-08
v -9.531928E-08 -0.2771638 0.1148052
v -9.837147E-08 -0.2494408 0.1666712
v -9.85137E-08 -0.2121319 0.2121322
v -9.574049E-08 -0.1666709 0.249441
v -9.015842E-08 -0.1148048 0.277164
v -8.198203E-08 -0.05852684 0.2942356
v -7.152552E-08 2.896797E-07 0.3
v -0.3 5.841216E-08 -4.88762E-08
v -2.593283E-09 5.04931E-16 -4.224995E-16
v -0.2942356 1.138035E-07 0.05852705
v -0.2942356 1.138035E-07 0.05852705
v -2.593283E-09 5.04931E-16 -4.224995E-16
v -0.2771639 1.648214E-07 0.114805
v -0.2494409 2.095054E-07 0.166671
v -0.2121321 2.461381E-07 0.212132
v -0.1666711 2.73312E-07 0.2494409
v -0.1148051 2.899826E-07 0.2771638
v -2.593283E-09 5.04931E-16 -4.224995E-16
v -0.05852715 2.955093E-07 0.2942356
v -0.05852715 2.955093E-07 0.2942356
v -2.593283E-09 5.04931E-16 -4.224995E-16
v -7.152552E-08 2.896797E-07 0.3
v -8.947443E-08 -0.2942356 0.05852722
v -2.593283E-09 5.04931E-16 -4.224995E-16
v -8.106154E-08 -0.3 9.775241E-08
v -9.531928E-08 -0.2771638 0.1148052
v -9.837147E-08 -0.2494408 0.1666712
v -9.85137E-08 -0.2121319 0.2121322
v -9.574049E-08 -0.1666709 0.249441
v -9.015842E-08 -0.1148048 0.277164
v -8.198203E-08 -0.05852684 0.2942356
v -7.152552E-08 2.896797E-07 0.3
v -0.2942356 -0.05852704 -2.886651E-08
v -2.593283E-09 5.04931E-16 -4.224995E-16
v -0.3 5.841216E-08 -4.88762E-08
v -0.2771639 -0.114805 -7.747494E-09
v -2.593283E-09 5.04931E-16 -4.224995E-16
v -0.2942356 -0.05852704 -2.886651E-08
v -0.2494409 -0.166671 1.366925E-08
v -0.2121321 -0.212132 3.45607E-08
v -0.1666711 -0.2494408 5.4124E-08
v -0.1148051 -0.2771638 7.160734E-08
v -0.05852716 -0.2942356 8.633884E-08
v -2.593283E-09 5.04931E-16 -4.224995E-16
v -8.106154E-08 -0.3 9.775241E-08
v -2.593283E-09 5.04931E-16 -4.224995E-16
v -0.05852716 -0.2942356 8.633884E-08

vn -0.9960412 -0.06285611 0.06285649
vn -0.9795977 -0.1971072 0.03920714
vn -0.9794058 -0.2009294 0.01978989
vn -0.921707 -0.3804337 0.0756731
vn -0.9210351 -0.3876041 0.0381758
vn -0.921707 -0.3583606 0.1484378
vn -0.9795977 -0.1856709 0.07690734
vn -0.9960412 -0.06285611 0.06285649
vn -0.921707 -0.322516 0.2154983
vn -0.9795977 -0.1670993 0.1116521
vn -0.9960412 -0.06285611 0.06285649
vn -0.921707 -0.274277 0.2742776
vn -0.9795977 -0.1421061 0.1421064
vn -0.9960412 -0.06285611 0.06285649
vn -0.921707 -0.215498 0.3225164
vn -0.9795977 -0.111652 0.1670995
vn -0.9960412 -0.06285611 0.06285649
vn -0.921707 -0.1484375 0.3583607
vn -0.9795977 -0.07690726 0.185671
vn -0.9960412 -0.06285611 0.06285649
vn -0.921707 -0.07567239 0.3804337
vn -0.9795977 -0.03920633 0.1971073
vn -0.9960412 -0.06285611 0.06285649
vn -0.9210352 -0.03817491 0.3876041
vn -0.9794058 -0.01978857 0.2009296
vn -0.9960412 -0.06285611 0.06285649
vn -0.8286448 -0.3109939 0.465436
vn -0.8286448 -0.3958203 0.3958209
vn -0.8286448 -0.2142161 0.5171646
vn -0.8286448 -0.109206 0.549019
vn -0.8273882 -0.0550487 0.5589261
vn -0.7040593 -0.3945329 0.5904611
vn -0.7040592 -0.5021453 0.502146
vn -0.8286448 -0.4654356 0.3109944
vn -0.8286448 -0.5171645 0.2142166
vn -0.8286448 -0.5490189 0.1092068
vn -0.8273882 -0.558926 0.05504964
vn -0.7040592 -0.6964961 0.138542
vn -0.7023433 -0.7084106 0.06977266
vn -0.7040591 -0.656085 0.2717594
vn -0.7040592 -0.5904607 0.3945336
vn -0.5527614 -0.8173271 0.1625769
vn -0.550909 -0.8305467 0.081802
vn -0.5527614 -0.7699052 0.3189056
vn -0.5527613 -0.6928964 0.4629789
vn -0.5527615 -0.5892596 0.5892604
vn -0.5527615 -0.4629781 0.6928968
vn -0.5527614 -0.3189045 0.7699056
vn -0.7040592 -0.2717587 0.6560852
vn -0.7040592 -0.1385409 0.6964962
vn -0.7023434 -0.06977161 0.7084107
vn -0.5527614 -0.1625756 0.8173273
vn -0.5509088 -0.08180091 0.8305469
vn -0.3805375 -0.7689143 0.5137724
vn -0.3805375 -0.6539075 0.6539083
vn -0.3805375 -0.3538916 0.8543723
vn -0.3805375 -0.5137716 0.7689149
vn -0.3789687 -0.09070517 0.9209535
vn -0.3805374 -0.1804119 0.9069966
vn -0.1939303 -0.6936821 0.693683
vn -0.1939304 -0.8156842 0.5450232
vn -0.3805375 -0.8543717 0.3538928
vn -0.3805374 -0.9069963 0.1804132
vn -0.3789687 -0.9209533 0.0907063
vn -0.1939303 -0.9621653 0.191387
vn -0.1930314 -0.9764678 0.09617409
vn -0.1939304 -0.9063398 0.3754187
vn -0.1930314 -0.09617287 0.976468
vn -0.1939304 -0.1913857 0.9621655
vn -0.1939304 -0.3754175 0.9063403
vn -0.1939303 -0.5450222 0.8156849
vn -0.09801766 -0.9760624 0.1941513
vn -0.09755022 -0.9904383 0.09755012
vn -0.09801761 -0.9194306 0.3808411
vn -0.09801754 -0.8274655 0.5528953
vn -0.09801747 -0.7037014 0.7037023
vn -0.09801739 -0.5528945 0.8274662
vn -0.09801741 -0.3808399 0.9194311
vn -0.09801741 -0.19415 0.9760627
vn -0.0975499 -0.09754883 0.9904384
vn 1.947073E-07 1 -9.655992E-07
vn 1.947073E-07 1 -9.655992E-07
vn 1.947073E-07 1 -9.655992E-07
vn 1.947074E-07 1 -9.655993E-07
vn 1.947074E-07 1 -9.655993E-07
vn 1.947074E-07 1 -9.655993E-07
vn 1.947075E-07 1 -9.655988E-07
vn 1.947073E-07 1 -9.655992E-07
vn 1.947074E-07 1 -9.65599E-07
vn 1.94707E-07 1 -9.655993E-07
vn 1.947075E-07 1 -9.655989E-07
vn 1.947075E-07 1 -9.65599E-07
vn 1.947072E-07 1 -9.655992E-07
vn 1.947071E-07 1 -9.655992E-07
vn 1.947072E-07 1 -9.655992E-07
vn 1 -2.615608E-07 1.695051E-07
vn 1 -2.615608E-07 1.695051E-07
vn 1 -2.615608E-07 1.695051E-07
vn 1 -2.589916E-07 1.824213E-07
vn 1 -2.539521E-07 1.945879E-07
vn 1 -2.466357E-07 2.055375E-07
vn 1 -2.37324E-07 2.148492E-07
vn 1 -2.263743E-07 2.221656E-07
vn 1 -2.142076E-07 2.272052E-07
vn 1 -2.012916E-07 2.297743E-07
vn 1.629206E-07 -3.258414E-07 -1
vn 1.629206E-07 -3.258414E-07 -1
vn 1.629206E-07 -3.258414E-07 -1
vn 1.629206E-07 -3.258414E-07 -1
vn 1.629206E-07 -3.258414E-07 -1
vn 1.629206E-07 -3.258414E-07 -1
vn 1.629207E-07 -3.258415E-07 -1
vn 1.629206E-07 -3.258413E-07 -1
vn 1.629207E-07 -3.258415E-07 -1
vn 1.629206E-07 -3.258414E-07 -1
vn 1.629206E-07 -3.258414E-07 -1
vn 1.629206E-07 -3.258414E-07 -1
vn 1.629207E-07 -3.258414E-07 -1
vn 1.629207E-07 -3.258414E-07 -1
vn 1.629207E-07 -3.258414E-07 -1

vt 0.25 1
vt 0.28125 0.9375
vt 0.25 0.9375
vt 0.28125 0.875
vt 0.25 0.875
vt 0.3125 0.875
vt 0.3125 0.9375
vt 0.28125 1
vt 0.34375 0.875
vt 0.34375 0.9375
vt 0.3125 1
vt 0.375 0.875
vt 0.375 0.9375
vt 0.34375 1
vt 0.40625 0.875
vt 0.40625 0.9375
vt 0.375 1
vt 0.4375 0.875
vt 0.4375 0.9375
vt 0.40625 1
vt 0.46875 0.875
vt 0.46875 0.9375
vt 0.4375 1
vt 0.5000001 0.875
vt 0.5000001 0.9375
vt 0.46875 1
vt 0.40625 0.8125
vt 0.375 0.8125
vt 0.4375 0.8125
vt 0.46875 0.8125
vt 0.5000001 0.8125
vt 0.40625 0.75
vt 0.375 0.75
vt 0.34375 0.8125
vt 0.3125 0.8125
vt 0.28125 0.8125
vt 0.25 0.8125
vt 0.28125 0.75
vt 0.25 0.75
vt 0.3125 0.75
vt 0.34375 0.75
vt 0.28125 0.6875
vt 0.25 0.6875
vt 0.3125 0.6875
vt 0.34375 0.6875
vt 0.375 0.6875
vt 0.40625 0.6875
vt 0.4375 0.6875
vt 0.4375 0.75
vt 0.46875 0.75
vt 0.5000001 0.75
vt 0.46875 0.6875
vt 0.5000001 0.6875
vt 0.34375 0.625
vt 0.375 0.625
vt 0.4375 0.625
vt 0.40625 0.625
vt 0.5000001 0.625
vt 0.46875 0.625
vt 0.375 0.5625
vt 0.34375 0.5625
vt 0.3125 0.625
vt 0.28125 0.625
vt 0.25 0.625
vt 0.28125 0.5625
vt 0.25 0.5625
vt 0.3125 0.5625
vt 0.5000001 0.5625
vt 0.46875 0.5625
vt 0.4375 0.5625
vt 0.40625 0.5625
vt 0.28125 0.5
vt 0.25 0.5
vt 0.3125 0.5
vt 0.34375 0.5
vt 0.375 0.5
vt 0.40625 0.5
vt 0.4375 0.5
vt 0.46875 0.5
vt 0.5000001 0.5
vt 0.46875 1
vt 0.4965278 0.75
vt 0.5000001 0.9375
vt 0.5000001 0.9375
vt 0.4965278 0.75
vt 0.5000001 0.875
vt 0.5000001 0.8125
vt 0.5000001 0.75
vt 0.5000001 0.6875
vt 0.5000001 0.625
vt 0.4965278 0.75
vt 0.5000001 0.5625
vt 0.5000001 0.5625
vt 0.4965278 0.75
vt 0.5000001 0.5
vt 0.28125 0.5
vt 0.375 0.5
vt 0.25 0.5
vt 0.3125 0.5
vt 0.34375 0.5
vt 0.375 0.5
vt 0.40625 0.5
vt 0.4375 0.5
vt 0.46875 0.5
vt 0.5000001 0.5
vt 0.25 0.9375
vt 0.25 0.75
vt 0.25 1
vt 0.25 0.875
vt 0.25 0.75
vt 0.25 0.9375
vt 0.25 0.8125
vt 0.25 0.75
vt 0.25 0.6875
vt 0.25 0.625
vt 0.25 0.5625
vt 0.25 0.75
vt 0.25 0.5
vt 0.25 0.75
vt 0.25 0.5625

g Sphere001
usemtl Sphere001
usemap Sphere001
f 1/1/1 3/3/3 2/2/2
f 3/3/3 4/4/4 2/2/2
f 3/3/3 5/5/5 4/4/4
f 2/2/2 4/4/4 6/6/6
f 2/2/2 6/6/6 7/7/7
f 8/8/8 2/2/2 7/7/7
f 7/7/7 6/6/6 9/9/9
f 7/7/7 9/9/9 10/10/10
f 11/11/11 7/7/7 10/10/10
f 10/10/10 9/9/9 12/12/12
f 10/10/10 12/12/12 13/13/13
f 14/14/14 10/10/10 13/13/13
f 13/13/13 12/12/12 15/15/15
f 13/13/13 15/15/15 16/16/16
f 17/17/17 13/13/13 16/16/16
f 16/16/16 15/15/15 18/18/18
f 16/16/16 18/18/18 19/19/19
f 20/20/20 16/16/16 19/19/19
f 19/19/19 18/18/18 21/21/21
f 19/19/19 21/21/21 22/22/22
f 23/23/23 19/19/19 22/22/22
f 22/22/22 21/21/21 24/24/24
f 22/22/22 24/24/24 25/25/25
f 26/26/26 22/22/22 25/25/25
f 12/12/12 27/27/27 15/15/15
f 12/12/12 28/28/28 27/27/27
f 15/15/15 29/29/29 18/18/18
f 15/15/15 27/27/27 29/29/29
f 18/18/18 30/30/30 21/21/21
f 18/18/18 29/29/29 30/30/30
f 21/21/21 31/31/31 24/24/24
f 21/21/21 30/30/30 31/31/31
f 28/28/28 32/32/32 27/27/27
f 28/28/28 33/33/33 32/32/32
f 34/34/34 33/33/33 28/28/28
f 9/9/9 34/34/34 28/28/28
f 6/6/6 34/34/34 9/9/9
f 6/6/6 35/35/35 34/34/34
f 4/4/4 35/35/35 6/6/6
f 4/4/4 36/36/36 35/35/35
f 5/5/5 36/36/36 4/4/4
f 5/5/5 37/37/37 36/36/36
f 9/9/9 28/28/28 12/12/12
f 37/37/37 38/38/38 36/36/36
f 37/37/37 39/39/39 38/38/38
f 36/36/36 40/40/40 35/35/35
f 36/36/36 38/38/38 40/40/40
f 35/35/35 41/41/41 34/34/34
f 35/35/35 40/40/40 41/41/41
f 34/34/34 41/41/41 33/33/33
f 39/39/39 42/42/42 38/38/38
f 39/39/39 43/43/43 42/42/42
f 38/38/38 44/44/44 40/40/40
f 38/38/38 42/42/42 44/44/44
f 40/40/40 45/45/45 41/41/41
f 40/40/40 44/44/44 45/45/45
f 41/41/41 45/45/45 46/46/46
f 41/41/41 46/46/46 33/33/33
f 33/33/33 46/46/46 47/47/47
f 33/33/33 47/47/47 32/32/32
f 32/32/32 47/47/47 48/48/48
f 32/32/32 48/48/48 49/49/49
f 27/27/27 32/32/32 49/49/49
f 27/27/27 49/49/49 29/29/29
f 29/29/29 49/49/49 50/50/50
f 29/29/29 50/50/50 30/30/30
f 30/30/30 50/50/50 51/51/51
f 30/30/30 51/51/51 31/31/31
f 49/49/49 52/52/52 50/50/50
f 49/49/49 48/48/48 52/52/52
f 50/50/50 53/53/53 51/51/51
f 50/50/50 52/52/52 53/53/53
f 44/44/44 54/54/54 45/45/45
f 45/45/45 55/55/55 46/46/46
f 45/45/45 54/54/54 55/55/55
f 47/47/47 56/56/56 48/48/48
f 47/47/47 57/57/57 56/56/56
f 46/46/46 55/55/55 57/57/57
f 46/46/46 57/57/57 47/47/47
f 52/52/52 58/58/58 53/53/53
f 52/52/52 59/59/59 58/58/58
f 48/48/48 59/59/59 52/52/52
f 48/48/48 56/56/56 59/59/59
f 54/54/54 60/60/60 55/55/55
f 54/54/54 61/61/61 60/60/60
f 62/62/62 61/61/61 54/54/54
f 44/44/44 62/62/62 54/54/54
f 42/42/42 62/62/62 44/44/44
f 42/42/42 63/63/63 62/62/62
f 43/43/43 63/63/63 42/42/42
f 43/43/43 64/64/64 63/63/63
f 64/64/64 65/65/65 63/63/63
f 64/64/64 66/66/66 65/65/65
f 63/63/63 67/67/67 62/62/62
f 63/63/63 65/65/65 67/67/67
f 62/62/62 67/67/67 61/61/61
f 59/59/59 68/68/68 58/58/58
f 59/59/59 69/69/69 68/68/68
f 56/56/56 69/69/69 59/59/59
f 56/56/56 70/70/70 69/69/69
f 57/57/57 70/70/70 56/56/56
f 57/57/57 71/71/71 70/70/70
f 55/55/55 71/71/71 57/57/57
f 55/55/55 60/60/60 71/71/71
f 66/66/66 72/72/72 65/65/65
f 66/66/66 73/73/73 72/72/72
f 65/65/65 74/74/74 67/67/67
f 65/65/65 72/72/72 74/74/74
f 67/67/67 74/74/74 75/75/75
f 67/67/67 75/75/75 61/61/61
f 61/61/61 76/76/76 60/60/60
f 61/61/61 75/75/75 76/76/76
f 60/60/60 77/77/77 71/71/71
f 60/60/60 76/76/76 77/77/77
f 71/71/71 78/78/78 70/70/70
f 71/71/71 77/77/77 78/78/78
f 70/70/70 79/79/79 69/69/69
f 70/70/70 78/78/78 79/79/79
f 69/69/69 79/79/79 80/80/80
f 69/69/69 80/80/80 68/68/68
f 81/81/81 83/83/83 82/82/82
f 84/84/84 86/86/86 85/85/85
f 86/86/86 87/87/87 85/85/85
f 87/87/87 88/88/88 85/85/85
f 88/88/88 89/89/89 85/85/85
f 89/89/89 90/90/90 85/85/85
f 90/90/90 92/92/92 91/91/91
f 93/93/93 95/95/95 94/94/94
f 96/96/96 98/98/98 97/97/97
f 99/99/99 96/96/96 97/97/97
f 100/100/100 99/99/99 97/97/97
f 101/101/101 100/100/100 97/97/97
f 102/102/102 101/101/101 97/97/97
f 103/103/103 102/102/102 97/97/97
f 104/104/104 103/103/103 97/97/97
f 105/105/105 104/104/104 97/97/97
f 106/106/106 108/108/108 107/107/107
f 109/109/109 111/111/111 110/110/110
f 112/112/112 109/109/109 110/110/110
f 113/113/113 112/112/112 110/110/110
f 114/114/114 113/113/113 110/110/110
f 115/115/115 114/114/114 110/110/110
f 116/116/116 115/115/115 117/117/117
f 118/118/118 120/120/120 119/119/119
